<?xml version="1.0" encoding="UTF-8"?>
<svg xmlns="http://www.w3.org/2000/svg" xmlns:xlink="http://www.w3.org/1999/xlink" width="15px" height="16px" viewBox="0 0 15 16" version="1.1">
<g id="surface1">
<path style=" stroke:none;fill-rule:nonzero;fill:rgb(0%,0%,0%);fill-opacity:1;" d="M 9.722656 2.691406 C 9.304688 3.152344 8.753906 3.828125 8.480469 4.203125 C 7.757812 5.207031 6.042969 7.339844 5.609375 7.753906 C 4.414062 8.921875 3.230469 11.308594 2.695312 13.640625 C 2.554688 14.257812 3.015625 14.144531 4.527344 13.179688 C 5.828125 12.34375 6.246094 11.972656 7.5 10.53125 C 8.308594 9.613281 9.015625 8.75 9.058594 8.632812 C 9.101562 8.519531 9.445312 8.058594 9.808594 7.625 C 10.917969 6.332031 11.277344 5.742188 11.179688 5.324219 C 11.105469 5.007812 11.121094 4.992188 11.277344 5.195312 C 11.453125 5.394531 11.496094 5.394531 11.667969 5.222656 C 11.769531 5.109375 11.828125 4.890625 11.785156 4.75 C 11.742188 4.589844 11.785156 4.503906 11.882812 4.546875 C 12.070312 4.617188 12.691406 3.753906 12.691406 3.425781 C 12.691406 3.308594 12.375 2.90625 11.972656 2.53125 C 10.992188 1.625 10.6875 1.640625 9.722656 2.691406 Z M 10.875 2.246094 C 11.234375 2.386719 11.148438 2.589844 10.714844 2.589844 C 10.515625 2.589844 10.210938 2.691406 10.066406 2.820312 C 9.820312 3.050781 9.820312 3.078125 10.066406 3.265625 C 10.285156 3.453125 10.285156 3.453125 9.980469 3.308594 C 9.722656 3.179688 9.691406 3.109375 9.808594 2.878906 C 9.894531 2.734375 10.097656 2.503906 10.269531 2.386719 C 10.644531 2.128906 10.585938 2.128906 10.875 2.246094 Z M 9.589844 4.820312 C 9.921875 5.09375 10.242188 5.28125 10.269531 5.25 C 10.3125 5.207031 10.457031 5.308594 10.585938 5.453125 C 10.832031 5.726562 10.816406 5.769531 9.996094 6.804688 C 8.148438 9.136719 6.375 11.308594 6.070312 11.566406 C 5.769531 11.839844 5.769531 11.839844 5.769531 11.554688 C 5.769531 11.164062 5.640625 11.066406 5.320312 11.222656 C 5.105469 11.351562 5.0625 11.296875 5.019531 10.90625 C 4.992188 10.546875 4.902344 10.417969 4.660156 10.386719 C 4.472656 10.359375 4.328125 10.300781 4.328125 10.273438 C 4.328125 10.070312 8.769531 4.316406 8.929688 4.316406 C 8.957031 4.316406 9.257812 4.546875 9.589844 4.820312 Z M 4.730469 11.195312 C 4.773438 11.597656 4.816406 11.640625 5.105469 11.566406 C 5.367188 11.511719 5.464844 11.554688 5.523438 11.785156 C 5.597656 12.085938 5.480469 12.214844 4.515625 12.863281 C 3.953125 13.238281 3.910156 13.25 3.5625 13.023438 L 3.203125 12.792969 L 3.5625 11.898438 C 3.75 11.410156 3.953125 10.921875 3.996094 10.820312 C 4.039062 10.71875 4.210938 10.648438 4.382812 10.675781 C 4.617188 10.703125 4.703125 10.835938 4.730469 11.195312 Z M 4.730469 11.195312 "/>
<path style=" stroke:none;fill-rule:nonzero;fill:rgb(0%,0%,0%);fill-opacity:1;" d="M 1.082031 12.375 C 1.023438 12.460938 1.097656 12.703125 1.242188 12.921875 C 1.515625 13.339844 1.671875 13.164062 1.527344 12.589844 C 1.429688 12.214844 1.242188 12.128906 1.082031 12.375 Z M 1.082031 12.375 "/>
<path style=" stroke:none;fill-rule:nonzero;fill:rgb(0%,0%,0%);fill-opacity:1;" d="M 0.476562 13.324219 C 0.375 13.582031 0.648438 13.8125 1.054688 13.8125 C 1.414062 13.8125 1.355469 13.597656 0.9375 13.324219 C 0.605469 13.109375 0.5625 13.109375 0.476562 13.324219 Z M 0.476562 13.324219 "/>
<path style=" stroke:none;fill-rule:nonzero;fill:rgb(0%,0%,0%);fill-opacity:1;" d="M 11.105469 13.855469 C 10.875 13.972656 10.730469 14.1875 10.703125 14.445312 C 10.660156 14.835938 10.644531 14.847656 9.765625 14.777344 C 9.273438 14.75 8.652344 14.632812 8.394531 14.519531 C 7.976562 14.34375 7.789062 14.359375 6.664062 14.632812 C 4.976562 15.050781 4.226562 15.136719 3.894531 14.964844 C 3.691406 14.847656 3.605469 14.847656 3.605469 14.964844 C 3.605469 15.207031 4.328125 15.410156 4.890625 15.324219 C 5.179688 15.28125 6 15.109375 6.722656 14.949219 C 7.976562 14.660156 8.0625 14.660156 8.507812 14.890625 C 8.828125 15.066406 9.332031 15.136719 10.066406 15.136719 C 10.660156 15.121094 11.308594 15.195312 11.507812 15.265625 C 11.972656 15.4375 12.878906 15.222656 13.414062 14.804688 L 13.773438 14.53125 L 13.140625 14.75 C 12.792969 14.863281 12.289062 14.964844 12 14.964844 L 11.496094 14.964844 L 11.8125 14.617188 C 12.042969 14.375 12.117188 14.171875 12.042969 13.972656 C 11.941406 13.625 11.625 13.597656 11.105469 13.855469 Z M 11.828125 14.085938 C 11.828125 14.246094 11.265625 14.675781 11.078125 14.675781 C 10.902344 14.675781 10.945312 14.316406 11.132812 14.128906 C 11.335938 13.929688 11.828125 13.898438 11.828125 14.085938 Z M 11.828125 14.085938 "/>
</g>
</svg>
