<?xml version="1.0" standalone="no"?>
<!DOCTYPE svg PUBLIC "-//W3C//DTD SVG 20010904//EN"
 "http://www.w3.org/TR/2001/REC-SVG-20010904/DTD/svg10.dtd">
<svg version="1.0" xmlns="http://www.w3.org/2000/svg"
 width="104.000000pt" height="111.000000pt" viewBox="0 0 104.000000 111.000000"
 preserveAspectRatio="xMidYMid meet">

<g transform="translate(0.000000,111.000000) scale(0.100000,-0.100000)"
fill="#000000" stroke="none">
<path d="M674 923 c-29 -32 -67 -79 -86 -105 -50 -70 -169 -218 -199 -247 -83
-81 -165 -247 -202 -409 -10 -43 22 -35 127 32 90 58 119 84 206 184 56 64
105 124 108 132 3 8 27 40 52 70 77 90 102 131 95 160 -5 22 -4 23 7 9 12 -14
15 -14 27 -2 7 8 11 23 8 33 -3 11 0 17 7 14 13 -5 56 55 56 78 0 8 -22 36
-50 62 -68 63 -89 62 -156 -11z m80 31 c25 -10 19 -24 -11 -24 -14 0 -35 -7
-45 -16 -17 -16 -17 -18 0 -31 15 -13 15 -13 -6 -3 -18 9 -20 14 -12 30 6 10
20 26 32 34 26 18 22 18 42 10z m-89 -179 c23 -19 45 -32 47 -30 3 3 13 -4 22
-14 17 -19 16 -22 -41 -94 -128 -162 -251 -313 -272 -331 -21 -19 -21 -19 -21
1 0 27 -9 34 -31 23 -15 -9 -18 -5 -21 22 -2 25 -8 34 -25 36 -13 2 -23 6 -23
8 0 14 308 414 319 414 2 0 23 -16 46 -35z m-337 -443 c3 -28 6 -31 26 -26 18
4 25 1 29 -15 5 -21 -3 -30 -70 -75 -39 -26 -42 -27 -66 -11 l-25 16 25 62
c13 34 27 68 30 75 3 7 15 12 27 10 16 -2 22 -11 24 -36z"/>
<path d="M75 250 c-4 -6 1 -23 11 -38 19 -29 30 -17 20 23 -7 26 -20 32 -31
15z"/>
<path d="M33 184 c-7 -18 12 -34 40 -34 25 0 21 15 -8 34 -23 15 -26 15 -32 0z"/>
<path d="M770 147 c-16 -8 -26 -23 -28 -41 -3 -27 -4 -28 -65 -23 -34 2 -77
10 -95 18 -29 12 -42 11 -120 -8 -117 -29 -169 -35 -192 -23 -14 8 -20 8 -20
0 0 -17 50 -31 89 -25 20 3 77 15 127 26 87 20 93 20 124 4 22 -12 57 -17 108
-17 41 1 86 -4 100 -9 32 -12 95 3 132 32 l25 19 -44 -15 c-24 -8 -59 -15 -79
-15 l-35 0 22 24 c16 17 21 31 16 45 -7 24 -29 26 -65 8z m50 -16 c0 -11 -39
-41 -52 -41 -12 0 -9 25 4 38 14 14 48 16 48 3z"/>
</g>
</svg>
